<svg width="15" height="11" viewBox="0 0 15 11" fill="none" xmlns="http://www.w3.org/2000/svg">
<path d="M8.60084 1.3694C8.45325 1.21504 8.3729 1.01088 8.37671 0.799921C8.38053 0.588966 8.46823 0.38769 8.62132 0.238499C8.77441 0.0893074 8.98095 0.00384893 9.19742 0.000126863C9.41389 -0.0035952 9.62339 0.0747097 9.78179 0.218545L14.2382 4.5614C14.3947 4.71408 14.4826 4.92104 14.4826 5.13683C14.4826 5.35262 14.3947 5.55958 14.2382 5.71226L9.78179 10.0551C9.70529 10.1351 9.61304 10.1993 9.51055 10.2438C9.40805 10.2883 9.29741 10.3122 9.18521 10.3142C9.07302 10.3161 8.96158 10.296 8.85754 10.255C8.75349 10.2141 8.65898 10.1531 8.57963 10.0758C8.50029 9.99846 8.43774 9.90636 8.39571 9.80496C8.35369 9.70357 8.33305 9.59497 8.33503 9.48563C8.33701 9.3763 8.36157 9.26847 8.40724 9.16859C8.4529 9.0687 8.51875 8.97881 8.60084 8.90426L11.6312 5.95112H0.835574C0.613966 5.95112 0.401435 5.86532 0.244734 5.71262C0.0880334 5.55991 0 5.35279 0 5.13683C0 4.92087 0.0880334 4.71375 0.244734 4.56104C0.401435 4.40834 0.613966 4.32254 0.835574 4.32254H11.6312L8.60084 1.3694Z" fill="black"/>
</svg>
