<svg width="34" height="34" viewBox="0 0 34 34" fill="none" xmlns="http://www.w3.org/2000/svg">
<path d="M26.2031 14.3812H7.22545C7.03314 14.3812 6.87724 14.5371 6.87724 14.7294V25.8375C6.87724 26.0298 7.03314 26.1857 7.22545 26.1857H26.2031C26.3954 26.1857 26.5513 26.0298 26.5513 25.8375V14.7294C26.5513 14.5371 26.3954 14.3812 26.2031 14.3812Z" stroke="black" stroke-width="0.5" stroke-linecap="round" stroke-linejoin="round"/>
<path d="M6.87724 18.3161H26.5513V22.2509H6.87724V18.3161Z" stroke="black" stroke-width="0.5" stroke-linecap="round" stroke-linejoin="round"/>
<path d="M10.8121 14.3812H14.7469V26.1857H10.8121V14.3812Z" stroke="black" stroke-width="0.5" stroke-linecap="round" stroke-linejoin="round"/>
<path d="M10.9687 7.48663H9.57589C9.38358 7.48663 9.22768 7.64253 9.22768 7.83485V11.317C9.22768 11.5093 9.38358 11.6652 9.57589 11.6652H10.9687C11.1611 11.6652 11.317 11.5093 11.317 11.317V7.83485C11.317 7.64253 11.1611 7.48663 10.9687 7.48663Z" stroke="black" stroke-width="0.5" stroke-linecap="round" stroke-linejoin="round"/>
<path d="M23.8527 7.48663H22.4598C22.2675 7.48663 22.1116 7.64253 22.1116 7.83485V11.317C22.1116 11.5093 22.2675 11.6652 22.4598 11.6652H23.8527C24.045 11.6652 24.2009 11.5093 24.2009 11.317V7.83485C24.2009 7.64253 24.045 7.48663 23.8527 7.48663Z" stroke="black" stroke-width="0.5" stroke-linecap="round" stroke-linejoin="round"/>
<path d="M18.6817 14.3812H22.6165V26.1857H18.6817V14.3812Z" stroke="black" stroke-width="0.5" stroke-linecap="round" stroke-linejoin="round"/>
<path d="M26.8125 3.83038H6.61607C5.07757 3.83038 3.83036 5.07759 3.83036 6.6161V26.8125C3.83036 28.351 5.07757 29.5982 6.61607 29.5982H26.8125C28.351 29.5982 29.5982 28.351 29.5982 26.8125V6.6161C29.5982 5.07759 28.351 3.83038 26.8125 3.83038Z" stroke="black" stroke-width="0.5" stroke-linecap="round" stroke-linejoin="round"/>
<path d="M29.5982 9.57587H24.2009M22.1116 9.57587H11.317M9.22768 9.57587H3.83036" stroke="black" stroke-width="0.5" stroke-linecap="round" stroke-linejoin="round"/>
</svg>
