<svg width="38" height="38" viewBox="0 0 38 38" fill="none" xmlns="http://www.w3.org/2000/svg">
<path d="M22.5146 9.82165C20.5594 11.2541 18.1977 12.0245 15.7738 12.0206C13.348 12.0246 10.9845 11.253 9.02831 9.81848" stroke="black" stroke-width="0.5" stroke-linecap="round" stroke-linejoin="round"/>
<path d="M23.9613 11.1805C22.2647 13.4728 18.9623 15.478 15.7738 15.478C14.1556 15.4294 12.5685 15.0216 11.1274 14.2839C9.68624 13.5463 8.42725 12.4973 7.4416 11.213" stroke="black" stroke-width="0.5" stroke-linecap="round" stroke-linejoin="round"/>
<path d="M25.2024 12.7198C23.7501 16.0531 19.7976 18.9354 15.7738 18.9354C13.7961 18.8881 11.8683 18.3041 10.1967 17.2459C8.52515 16.1878 7.17257 14.6952 6.28359 12.9279" stroke="black" stroke-width="0.5" stroke-linecap="round" stroke-linejoin="round"/>
<path d="M26.2726 14.657C24.9263 18.8611 20.4747 22.392 15.7738 22.392C13.4492 22.3407 11.1947 21.5855 9.30828 20.2261C7.42182 18.8666 5.99207 16.967 5.20785 14.778" stroke="black" stroke-width="0.5" stroke-linecap="round" stroke-linejoin="round"/>
<path d="M26.9552 16.7776C26.415 19.3429 25.009 21.6445 22.9732 23.2962C20.9373 24.948 18.3954 25.8494 15.7738 25.8494C13.1924 25.8509 10.6837 24.9939 8.64271 23.4133C6.60172 21.8327 5.14432 19.6182 4.49992 17.1185M23.1427 27.7857C23.8197 28.2714 25.0616 29.654 26.5494 29.6746C28.0373 29.6952 29.4247 28.0555 30.1769 28.4778C31.5168 29.2293 32.1053 30.3936 33.6177 30.4173" stroke="black" stroke-width="0.5" stroke-linecap="round" stroke-linejoin="round"/>
<path d="M19.3784 29.7759C17.2344 28.898 15.4004 27.4018 14.1099 25.4778C12.8194 23.5539 12.1309 21.2892 12.1321 18.9726C12.1321 14.2717 15.0113 10.0502 19.3886 8.33459" stroke="black" stroke-width="0.5" stroke-linecap="round" stroke-linejoin="round"/>
<path d="M21.3028 9.20947C19.579 10.1968 18.1425 11.6166 17.1352 13.3288C16.1278 15.041 15.5845 16.9863 15.5587 18.9726C15.5666 23.0541 17.7829 26.8113 21.3527 28.7919" stroke="black" stroke-width="0.5" stroke-linecap="round" stroke-linejoin="round"/>
<path d="M22.8524 10.2369C21.6339 11.3425 20.6603 12.6909 19.9944 14.1955C19.3285 15.7 18.985 17.3273 18.986 18.9726C18.986 22.5209 20.4691 25.866 23.1427 27.7857" stroke="black" stroke-width="0.5" stroke-linecap="round" stroke-linejoin="round"/>
<path d="M4.35043 18.9726C4.35043 25.2799 9.46494 30.3944 15.7738 30.3944C22.0827 30.3944 27.1973 25.2799 27.1973 18.9726C27.1973 12.6645 22.0843 7.55078 15.7754 7.54999C9.46652 7.5492 4.35043 12.6613 4.35043 18.9695V18.9726Z" stroke="black" stroke-width="0.5" stroke-linecap="round" stroke-linejoin="round"/>
</svg>
